<?xml version="1.0" standalone="no"?>
<!DOCTYPE svg PUBLIC "-//W3C//DTD SVG 20010904//EN"
 "http://www.w3.org/TR/2001/REC-SVG-20010904/DTD/svg10.dtd">
<svg version="1.0" xmlns="http://www.w3.org/2000/svg"
 width="200.000000pt" height="200.000000pt" viewBox="0 0 200.000000 200.000000"
 preserveAspectRatio="xMidYMid meet">

<g transform="translate(0.000000,200.000000) scale(0.100000,-0.100000)"
fill="#000000" stroke="none">
<path d="M130 1650 l0 -210 210 0 210 0 0 210 0 210 -210 0 -210 0 0 -210z
m360 0 l0 -150 -150 0 -150 0 0 150 0 150 150 0 150 0 0 -150z"/>
<path d="M250 1650 l0 -90 90 0 90 0 0 90 0 90 -90 0 -90 0 0 -90z"/>
<path d="M610 1800 l0 -60 60 0 60 0 0 -60 0 -60 -60 0 -60 0 0 -150 0 -150
-30 0 c-27 0 -30 3 -30 30 l0 30 -60 0 -60 0 0 -60 0 -60 -60 0 -60 0 0 -30
c0 -27 -3 -30 -30 -30 -27 0 -30 3 -30 30 0 27 -3 30 -30 30 -27 0 -30 3 -30
30 l0 30 60 0 60 0 0 30 0 30 -90 0 -90 0 0 -90 0 -90 60 0 60 0 0 -30 c0 -27
-3 -30 -30 -30 l-30 0 0 -60 0 -60 -30 0 -30 0 0 -60 0 -60 30 0 30 0 0 -60 0
-60 -30 0 c-27 0 -30 -3 -30 -30 l0 -30 60 0 60 0 0 -30 0 -30 -60 0 -60 0 0
-30 0 -30 120 0 120 0 0 30 c0 27 3 30 30 30 27 0 30 3 30 30 l0 30 60 0 60 0
0 -30 c0 -27 -3 -30 -30 -30 -27 0 -30 -3 -30 -30 0 -27 3 -30 30 -30 27 0 30
3 30 30 l0 30 60 0 60 0 0 -30 c0 -27 -3 -30 -30 -30 -27 0 -30 -3 -30 -30 0
-27 3 -30 30 -30 27 0 30 3 30 30 l0 30 90 0 90 0 0 -60 0 -60 -30 0 c-27 0
-30 -3 -30 -30 l0 -30 60 0 60 0 0 -60 0 -60 60 0 60 0 0 -30 c0 -27 3 -30 30
-30 27 0 30 3 30 30 0 27 3 30 30 30 27 0 30 -3 30 -30 0 -27 3 -30 30 -30
l30 0 0 -60 0 -60 30 0 30 0 0 60 0 60 -30 0 c-27 0 -30 3 -30 30 l0 30 60 0
60 0 0 -30 0 -30 60 0 60 0 0 -60 0 -60 90 0 90 0 0 30 c0 27 3 30 30 30 l30
0 0 60 0 60 30 0 c27 0 30 -3 30 -30 l0 -30 60 0 60 0 0 270 0 270 -30 0 c-27
0 -30 3 -30 30 0 27 3 30 30 30 27 0 30 3 30 30 l0 30 -90 0 -90 0 0 30 c0 27
3 30 30 30 27 0 30 3 30 30 0 27 3 30 30 30 27 0 30 -3 30 -30 0 -27 3 -30 30
-30 27 0 30 3 30 30 0 27 -3 30 -30 30 l-30 0 0 60 0 60 30 0 30 0 0 120 0
120 -60 0 -60 0 0 -30 c0 -27 -3 -30 -30 -30 -27 0 -30 -3 -30 -30 l0 -30 -60
0 -60 0 0 -30 c0 -27 -3 -30 -30 -30 l-30 0 0 60 0 60 60 0 60 0 0 30 0 30
-120 0 -120 0 0 -60 0 -60 -30 0 -30 0 0 60 0 60 -30 0 -30 0 0 60 0 60 -30 0
-30 0 0 -120 0 -120 -90 0 -90 0 0 60 0 60 30 0 c27 0 30 -3 30 -30 0 -27 3
-30 30 -30 l30 0 0 90 0 90 -30 0 -30 0 0 60 0 60 -30 0 c-27 0 -30 3 -30 30
l0 30 90 0 90 0 0 -30 c0 -27 -3 -30 -30 -30 -27 0 -30 -3 -30 -30 0 -27 3
-30 30 -30 27 0 30 3 30 30 0 27 3 30 30 30 27 0 30 3 30 30 0 27 3 30 30 30
27 0 30 3 30 30 0 27 -3 30 -30 30 -27 0 -30 3 -30 30 0 27 -3 30 -30 30 -27
0 -30 3 -30 30 l0 30 -90 0 -90 0 0 -30 0 -30 -60 0 -60 0 0 30 0 30 -60 0
-60 0 0 -30 0 -30 -60 0 -60 0 0 30 c0 27 -3 30 -30 30 l-30 0 0 -60z m240
-30 c0 -27 -3 -30 -30 -30 -27 0 -30 3 -30 30 0 27 3 30 30 30 27 0 30 -3 30
-30z m240 0 c0 -27 -3 -30 -30 -30 -27 0 -30 3 -30 30 0 27 3 30 30 30 27 0
30 -3 30 -30z m-120 -90 l0 -60 -30 0 c-27 0 -30 -3 -30 -30 l0 -30 60 0 60 0
0 -30 c0 -27 3 -30 30 -30 27 0 30 -3 30 -30 0 -27 -3 -30 -30 -30 -27 0 -30
3 -30 30 0 27 -3 30 -30 30 l-30 0 0 -60 0 -60 -30 0 -30 0 0 -60 0 -60 60 0
60 0 0 -120 0 -120 -60 0 -60 0 0 30 c0 27 3 30 30 30 l30 0 0 60 0 60 -30 0
c-27 0 -30 -3 -30 -30 l0 -30 -60 0 -60 0 0 -30 c0 -27 3 -30 30 -30 l30 0 0
-60 0 -60 -30 0 c-27 0 -30 3 -30 30 0 27 -3 30 -30 30 l-30 0 0 90 0 90 -30
0 c-27 0 -30 3 -30 30 l0 30 60 0 60 0 0 60 0 60 60 0 60 0 0 60 0 60 -30 0
c-27 0 -30 -3 -30 -30 0 -27 -3 -30 -30 -30 -27 0 -30 3 -30 30 0 27 -3 30
-30 30 l-30 0 0 -60 0 -60 -30 0 -30 0 0 90 0 90 60 0 60 0 0 -30 c0 -27 3
-30 30 -30 l30 0 0 60 0 60 -30 0 c-27 0 -30 3 -30 30 l0 30 60 0 60 0 0 30
c0 27 3 30 30 30 l30 0 0 -60z m-420 -390 c0 -27 -3 -30 -30 -30 -27 0 -30 3
-30 30 0 27 3 30 30 30 27 0 30 -3 30 -30z m720 -60 c0 -27 3 -30 30 -30 27 0
30 -3 30 -30 0 -27 3 -30 30 -30 l30 0 0 60 0 60 30 0 c27 0 30 -3 30 -30 0
-27 3 -30 30 -30 27 0 30 -3 30 -30 0 -27 -3 -30 -30 -30 -27 0 -30 -3 -30
-30 0 -27 3 -30 30 -30 l30 0 0 -60 0 -60 30 0 30 0 0 60 0 60 30 0 c27 0 30
3 30 30 0 27 -3 30 -30 30 -27 0 -30 3 -30 30 0 27 3 30 30 30 27 0 30 -3 30
-30 0 -27 3 -30 30 -30 27 0 30 3 30 30 l0 30 60 0 60 0 0 -30 0 -30 -60 0
-60 0 0 -30 c0 -27 3 -30 30 -30 27 0 30 -3 30 -30 l0 -30 -60 0 -60 0 0 -30
c0 -27 -3 -30 -30 -30 -27 0 -30 -3 -30 -30 l0 -30 -60 0 -60 0 0 -30 c0 -27
3 -30 30 -30 27 0 30 -3 30 -30 0 -27 3 -30 30 -30 27 0 30 3 30 30 0 27 3 30
30 30 27 0 30 3 30 30 0 27 3 30 30 30 27 0 30 -3 30 -30 0 -27 3 -30 30 -30
27 0 30 -3 30 -30 0 -27 3 -30 30 -30 l30 0 0 -60 0 -60 -60 0 -60 0 0 -30 c0
-27 3 -30 30 -30 27 0 30 -3 30 -30 0 -27 3 -30 30 -30 l30 0 0 -60 0 -60 -30
0 c-27 0 -30 -3 -30 -30 0 -27 3 -30 30 -30 27 0 30 -3 30 -30 0 -27 -3 -30
-30 -30 -27 0 -30 3 -30 30 0 27 -3 30 -30 30 -27 0 -30 -3 -30 -30 0 -27 -3
-30 -30 -30 l-30 0 0 60 0 60 30 0 30 0 0 90 0 90 -30 0 c-27 0 -30 3 -30 30
0 27 -3 30 -30 30 -27 0 -30 3 -30 30 0 27 -3 30 -30 30 -27 0 -30 -3 -30 -30
0 -27 -3 -30 -30 -30 -27 0 -30 3 -30 30 0 27 -3 30 -30 30 -27 0 -30 -3 -30
-30 0 -27 -3 -30 -30 -30 l-30 0 0 -90 0 -90 -60 0 -60 0 0 -30 c0 -27 3 -30
30 -30 27 0 30 -3 30 -30 0 -27 -3 -30 -30 -30 -27 0 -30 -3 -30 -30 0 -27 -3
-30 -30 -30 -27 0 -30 3 -30 30 0 27 3 30 30 30 27 0 30 3 30 30 0 27 -3 30
-30 30 -27 0 -30 3 -30 30 0 27 -3 30 -30 30 -27 0 -30 -3 -30 -30 0 -27 -3
-30 -30 -30 -27 0 -30 3 -30 30 0 27 3 30 30 30 27 0 30 3 30 30 l0 30 -90 0
-90 0 0 30 c0 27 3 30 30 30 l30 0 0 60 0 60 -30 0 c-27 0 -30 -3 -30 -30 l0
-30 -90 0 -90 0 0 30 0 30 60 0 60 0 0 30 0 30 -60 0 -60 0 0 30 c0 27 -3 30
-30 30 -27 0 -30 -3 -30 -30 0 -27 -3 -30 -30 -30 -27 0 -30 -3 -30 -30 0 -27
-3 -30 -30 -30 -27 0 -30 3 -30 30 0 27 -3 30 -30 30 -27 0 -30 3 -30 30 0 27
-3 30 -30 30 l-30 0 0 -60 0 -60 -60 0 -60 0 0 30 c0 27 -3 30 -30 30 -27 0
-30 3 -30 30 0 27 3 30 30 30 l30 0 0 60 0 60 30 0 30 0 0 60 0 60 30 0 c27 0
30 -3 30 -30 0 -27 3 -30 30 -30 27 0 30 3 30 30 0 27 3 30 30 30 27 0 30 3
30 30 0 27 -3 30 -30 30 -27 0 -30 3 -30 30 l0 30 60 0 60 0 0 -30 c0 -27 3
-30 30 -30 27 0 30 -3 30 -30 l0 -30 -60 0 -60 0 0 -30 0 -30 60 0 60 0 0 -30
c0 -27 -3 -30 -30 -30 l-30 0 0 -60 0 -60 30 0 c27 0 30 3 30 30 l0 30 120 0
120 0 0 30 c0 27 3 30 30 30 27 0 30 -3 30 -30 0 -27 -3 -30 -30 -30 l-30 0 0
-60 0 -60 60 0 60 0 0 30 c0 27 3 30 30 30 27 0 30 3 30 30 0 27 -3 30 -30 30
-27 0 -30 3 -30 30 0 27 3 30 30 30 l30 0 0 90 0 90 30 0 c27 0 30 3 30 30 0
27 3 30 30 30 27 0 30 3 30 30 0 27 3 30 30 30 27 0 30 -3 30 -30z m-840 -60
c0 -27 -3 -30 -30 -30 -27 0 -30 3 -30 30 0 27 3 30 30 30 27 0 30 -3 30 -30z
m1140 -660 l0 -90 -90 0 -90 0 0 90 0 90 90 0 90 0 0 -90z m-600 -60 c0 -27
-3 -30 -30 -30 -27 0 -30 3 -30 30 0 27 3 30 30 30 27 0 30 -3 30 -30z m120
-120 c0 -27 -3 -30 -30 -30 -27 0 -30 3 -30 30 0 27 3 30 30 30 27 0 30 -3 30
-30z m420 0 c0 -27 3 -30 30 -30 27 0 30 -3 30 -30 0 -27 3 -30 30 -30 27 0
30 -3 30 -30 l0 -30 -60 0 -60 0 0 30 c0 27 -3 30 -30 30 l-30 0 0 60 0 60 30
0 c27 0 30 -3 30 -30z"/>
<path d="M790 1230 c0 -27 3 -30 30 -30 27 0 30 3 30 30 0 27 -3 30 -30 30
-27 0 -30 -3 -30 -30z"/>
<path d="M1210 1080 l0 -60 -30 0 c-27 0 -30 -3 -30 -30 0 -27 -3 -30 -30 -30
-27 0 -30 -3 -30 -30 0 -27 3 -30 30 -30 27 0 30 3 30 30 0 27 3 30 30 30 27
0 30 3 30 30 0 27 3 30 30 30 l30 0 0 -90 0 -90 -30 0 c-27 0 -30 -3 -30 -30
0 -27 -3 -30 -30 -30 -27 0 -30 3 -30 30 0 27 -3 30 -30 30 -27 0 -30 -3 -30
-30 0 -27 -3 -30 -30 -30 l-30 0 0 -90 0 -90 30 0 c27 0 30 -3 30 -30 l0 -30
60 0 60 0 0 30 c0 27 -3 30 -30 30 -27 0 -30 3 -30 30 0 27 -3 30 -30 30 -27
0 -30 3 -30 30 l0 30 60 0 60 0 0 -30 c0 -27 3 -30 30 -30 27 0 30 3 30 30 l0
30 60 0 60 0 0 90 0 90 30 0 c27 0 30 3 30 30 l0 30 -60 0 -60 0 0 90 0 90
-60 0 -60 0 0 -60z m60 -330 c0 -27 -3 -30 -30 -30 -27 0 -30 3 -30 30 0 27 3
30 30 30 27 0 30 -3 30 -30z"/>
<path d="M490 990 c0 -27 -3 -30 -30 -30 -27 0 -30 -3 -30 -30 0 -27 3 -30 30
-30 27 0 30 -3 30 -30 0 -27 3 -30 30 -30 27 0 30 3 30 30 0 27 -3 30 -30 30
-27 0 -30 3 -30 30 0 27 3 30 30 30 27 0 30 3 30 30 0 27 -3 30 -30 30 -27 0
-30 -3 -30 -30z"/>
<path d="M310 810 c0 -27 3 -30 30 -30 27 0 30 3 30 30 0 27 -3 30 -30 30 -27
0 -30 -3 -30 -30z"/>
<path d="M1630 750 l0 -90 30 0 c27 0 30 3 30 30 0 27 3 30 30 30 27 0 30 3
30 30 0 27 -3 30 -30 30 -27 0 -30 3 -30 30 0 27 -3 30 -30 30 l-30 0 0 -90z"/>
<path d="M1450 510 c0 -27 3 -30 30 -30 27 0 30 3 30 30 0 27 -3 30 -30 30
-27 0 -30 -3 -30 -30z"/>
<path d="M1330 1830 c0 -27 3 -30 30 -30 27 0 30 3 30 30 0 27 -3 30 -30 30
-27 0 -30 -3 -30 -30z"/>
<path d="M1450 1650 l0 -210 210 0 210 0 0 210 0 210 -210 0 -210 0 0 -210z
m360 0 l0 -150 -150 0 -150 0 0 150 0 150 150 0 150 0 0 -150z"/>
<path d="M1570 1650 l0 -90 90 0 90 0 0 90 0 90 -90 0 -90 0 0 -90z"/>
<path d="M1330 1500 l0 -60 30 0 30 0 0 60 0 60 -30 0 -30 0 0 -60z"/>
<path d="M130 330 l0 -210 210 0 210 0 0 210 0 210 -210 0 -210 0 0 -210z
m360 0 l0 -150 -150 0 -150 0 0 150 0 150 150 0 150 0 0 -150z"/>
<path d="M250 330 l0 -90 90 0 90 0 0 90 0 90 -90 0 -90 0 0 -90z"/>
<path d="M610 450 c0 -27 3 -30 30 -30 l30 0 0 -60 0 -60 -30 0 -30 0 0 -90 0
-90 60 0 60 0 0 30 c0 27 -3 30 -30 30 -27 0 -30 3 -30 30 l0 30 90 0 90 0 0
30 c0 27 -3 30 -30 30 -27 0 -30 3 -30 30 0 27 -3 30 -30 30 l-30 0 0 60 0 60
-60 0 -60 0 0 -30z"/>
<path d="M910 210 l0 -30 -60 0 -60 0 0 -30 0 -30 90 0 90 0 0 60 0 60 -30 0
c-27 0 -30 -3 -30 -30z"/>
<path d="M1030 150 c0 -27 3 -30 30 -30 27 0 30 3 30 30 0 27 -3 30 -30 30
-27 0 -30 -3 -30 -30z"/>
<path d="M1330 150 c0 -27 3 -30 30 -30 27 0 30 3 30 30 0 27 -3 30 -30 30
-27 0 -30 -3 -30 -30z"/>
<path d="M1810 150 c0 -27 3 -30 30 -30 27 0 30 3 30 30 0 27 -3 30 -30 30
-27 0 -30 -3 -30 -30z"/>
</g>
</svg>
